<svg xmlns="http://www.w3.org/2000/svg" viewBox="0 0 24 24" fill="currentColor"><path d="M23.953 4.57a10 10 0 01-2.825.775 4.958 4.958 0 002.163-2.723c-.951.555-2.005.959-3.127 1.184a4.92 4.92 0 00-8.384 4.482C7.69 8.095 4.067 6.13 1.64 3.162a4.822 4.822 0 00-.666 2.475c0 1.71.87 3.213 2.188 4.096a4.904 4.904 0 01-2.228-.616v.06a4.923 4.923 0 003.946 4.827 4.996 4.996 0 01-2.223.085c.645 1.956 2.523 3.379 4.75 3.419a9.89 9.89 0 01-6.117 2.107c-.398 0-.79-.023-1.175-.068a13.963 13.963 0 007.548 2.212c9.058 0 14.01-7.502 14.01-14.01 0-.213-.005-.426-.015-.637a9.954 9.954 0 002.45-2.549z"/></svg>